; NON-PLATED HOLES START AT T1
; THROUGH (PLATED) HOLES START AT T100
M48
INCH
T1C0.125984
T100C0.059055
T101C0.031497
T102C0.027559
T103C0.039370
T104C0.015748
T105C0.038000
T106C0.098425
T107C0.040000
T108C0.051181
%
T1
X001444Y001799
X046444Y001799
X001444Y034799
X046444Y034799
T100
X033755Y030327
X033755Y024421
X036117Y030327
X036117Y024421
T101
X012444Y031815
X019444Y032799
X006444Y032799
X019444Y031815
X006444Y031815
X012444Y032799
T102
X034444Y025799
X035428Y025799
X034444Y028949
X035428Y028949
X034444Y027374
X035428Y027374
T103
X004444Y011799
X027444Y012799
X019444Y007799
X004444Y016799
X012444Y013799
X004444Y008799
X027444Y009799
X012444Y005799
X019444Y013799
X027444Y010799
X019444Y005799
X004444Y014799
X012444Y011799
X004444Y006799
X027444Y007799
X004444Y019799
X019444Y011799
X012444Y008799
X004444Y012799
X027444Y013799
X019444Y008799
X005844Y018199
X004444Y004799
X027444Y005799
X004444Y017799
X012444Y014799
X004444Y009799
X012444Y006799
X019444Y014799
X004444Y010799
X027444Y011799
X019444Y006799
X004444Y015799
X020944Y003099
X012444Y012799
X004444Y007799
X027444Y008799
X025944Y003099
X023944Y003099
X021944Y003099
X012444Y004799
X019444Y012799
X024944Y003099
X022944Y003099
X012444Y009799
X004444Y013799
X027444Y014799
X019444Y009799
X012444Y010799
X004444Y005799
X027444Y006799
X004444Y018799
X019444Y010799
X012444Y015799
X012444Y007799
T104
X017440Y017816
X028791Y004458
X024436Y008813
X015434Y006807
X031433Y025791
X027421Y017816
X027421Y021779
X026393Y004507
X015434Y000789
X021452Y014782
T105
X040749Y011783
X027444Y026799
X040749Y012783
X040749Y009783
X040749Y010783
X027444Y025799
T106
X011944Y021299
X019444Y016299
X019444Y003299
X027444Y003299
X027444Y016299
X004944Y021299
T107
X028444Y034799
X027444Y034799
T108
X008464Y003649
X010444Y003649
X006444Y003649
T00
M30
