G04 MADE WITH FRITZING*
G04 WWW.FRITZING.ORG*
G04 DOUBLE SIDED*
G04 HOLES PLATED*
G04 CONTOUR ON CENTER OF CONTOUR VECTOR*
%ASAXBY*%
%FSLAX23Y23*%
%MOIN*%
%OFA0B0*%
%SFA1.0B1.0*%
%ADD10C,0.138425*%
%ADD11C,0.070000*%
%ADD12C,0.098425*%
%ADD13C,0.150000*%
%ADD14C,0.100000*%
%ADD15C,0.066000*%
%ADD16C,0.062992*%
%ADD17C,0.078000*%
%ADD18C,0.080000*%
%ADD19C,0.039370*%
%ADD20R,0.062992X0.062992*%
%ADD21R,0.078000X0.078000*%
%ADD22R,0.080000X0.080000*%
%ADD23C,0.024000*%
%ADD24R,0.001000X0.001000*%
%LNCOPPER0*%
G90*
G70*
G54D10*
X1944Y330D03*
X1944Y1630D03*
G54D11*
X2094Y310D03*
X2194Y310D03*
X2294Y310D03*
X2394Y310D03*
X2494Y310D03*
X2594Y310D03*
X1944Y1480D03*
X1944Y1380D03*
X1944Y1280D03*
X1944Y1180D03*
X1944Y1080D03*
X1944Y980D03*
X1944Y880D03*
X1944Y780D03*
X1944Y680D03*
G54D10*
X2744Y1630D03*
G54D11*
X1944Y580D03*
G54D10*
X2744Y330D03*
G54D11*
X2744Y580D03*
X2744Y680D03*
X2744Y780D03*
X2744Y880D03*
X2744Y980D03*
X2744Y1080D03*
X2744Y1180D03*
X2744Y1280D03*
X2744Y1380D03*
X2744Y1480D03*
X1244Y1380D03*
G54D12*
X1044Y365D03*
G54D13*
X494Y2130D03*
G54D12*
X846Y365D03*
G54D14*
X644Y365D03*
G54D15*
X584Y1820D03*
G54D11*
X1244Y1180D03*
X444Y1980D03*
X1244Y1580D03*
X444Y1880D03*
X444Y1780D03*
X444Y1680D03*
X444Y1580D03*
X444Y1480D03*
X444Y1380D03*
X1244Y1080D03*
X444Y1280D03*
X1244Y1280D03*
X444Y1180D03*
X1244Y1480D03*
X444Y1080D03*
G54D13*
X1194Y2130D03*
G54D11*
X444Y980D03*
X444Y880D03*
X444Y780D03*
X444Y680D03*
X444Y580D03*
X444Y480D03*
X1244Y480D03*
X1244Y580D03*
X1244Y680D03*
X1244Y780D03*
X1244Y880D03*
X1244Y980D03*
G54D16*
X1244Y3182D03*
X1244Y3280D03*
X644Y3182D03*
X644Y3280D03*
X1944Y3182D03*
X1944Y3280D03*
G54D17*
X2744Y2680D03*
X2744Y2580D03*
G54D18*
X2744Y3480D03*
X2844Y3480D03*
G54D17*
X3644Y1280D03*
X3644Y1180D03*
X3644Y1080D03*
X3644Y980D03*
G54D14*
X3376Y2442D03*
X3612Y2442D03*
X3376Y3033D03*
X3612Y3033D03*
G54D15*
X3444Y2580D03*
X3444Y2737D03*
X3444Y2895D03*
X3543Y2580D03*
X3543Y2737D03*
X3543Y2895D03*
G54D19*
X1543Y79D03*
X1543Y681D03*
X2444Y881D03*
X2742Y2178D03*
X1744Y1782D03*
X2742Y1782D03*
X2145Y1478D03*
X3143Y2579D03*
X2639Y451D03*
X2879Y446D03*
G54D20*
X1244Y3182D03*
X644Y3182D03*
X1944Y3182D03*
G54D21*
X2744Y2680D03*
G54D22*
X2744Y3480D03*
G54D23*
X1218Y3280D02*
X671Y3280D01*
D02*
X1918Y3280D02*
X1271Y3280D01*
D02*
X2444Y3279D02*
X1971Y3280D01*
D02*
X2713Y3480D02*
X2444Y3479D01*
D02*
X2444Y3479D02*
X2444Y3279D01*
D02*
X2744Y2710D02*
X2744Y3449D01*
D02*
X2845Y2878D02*
X2845Y3279D01*
D02*
X3246Y2878D02*
X2845Y2878D01*
D02*
X3424Y2752D02*
X3246Y2878D01*
D02*
X2845Y3279D02*
X2845Y3449D01*
D02*
X3447Y578D02*
X3447Y979D01*
D02*
X3447Y979D02*
X3614Y980D01*
D02*
X2775Y580D02*
X3447Y578D01*
D02*
X618Y3280D02*
X345Y3279D01*
D02*
X345Y3279D02*
X345Y1679D01*
D02*
X345Y1679D02*
X414Y1680D01*
D02*
X1446Y1679D02*
X1446Y578D01*
D02*
X1446Y578D02*
X1914Y580D01*
D02*
X475Y1680D02*
X1446Y1679D01*
D02*
X1945Y2281D02*
X1944Y3155D01*
D02*
X2546Y1782D02*
X1945Y2281D01*
D02*
X2546Y1278D02*
X2546Y1782D01*
D02*
X2714Y1280D02*
X2546Y1278D01*
D02*
X2145Y1679D02*
X1245Y2379D01*
D02*
X2444Y1180D02*
X2145Y1679D01*
D02*
X2714Y1180D02*
X2444Y1180D01*
D02*
X1245Y2379D02*
X1244Y3155D01*
D02*
X643Y2379D02*
X644Y3155D01*
D02*
X2546Y979D02*
X2546Y505D01*
D02*
X2546Y505D02*
X2933Y510D01*
D02*
X2943Y79D02*
X1562Y79D01*
D02*
X2933Y510D02*
X2943Y79D01*
D02*
X2714Y980D02*
X2546Y979D01*
D02*
X1543Y700D02*
X1543Y1879D01*
D02*
X1142Y1879D02*
X643Y2379D01*
D02*
X1543Y1879D02*
X1142Y1879D01*
D02*
X545Y1581D02*
X475Y1580D01*
D02*
X2145Y480D02*
X1446Y480D01*
D02*
X2444Y480D02*
X2145Y480D01*
D02*
X2444Y862D02*
X2444Y480D01*
D02*
X1446Y480D02*
X1446Y79D01*
D02*
X1446Y79D02*
X746Y79D01*
D02*
X746Y578D02*
X545Y578D01*
D02*
X545Y578D02*
X545Y1581D01*
D02*
X746Y79D02*
X746Y578D01*
D02*
X2742Y2197D02*
X2744Y2550D01*
D02*
X1744Y1180D02*
X1744Y1763D01*
D02*
X1914Y1180D02*
X1744Y1180D01*
D02*
X2751Y1799D02*
X3135Y2562D01*
D02*
X2145Y779D02*
X2145Y1459D01*
D02*
X1975Y780D02*
X2145Y779D01*
D02*
X2658Y450D02*
X2860Y446D01*
D02*
X3045Y779D02*
X2775Y780D01*
D02*
X3614Y1280D02*
X3045Y1278D01*
D02*
X3045Y1278D02*
X3045Y779D01*
G54D24*
X607Y453D02*
X681Y453D01*
X607Y452D02*
X681Y452D01*
X809Y452D02*
X883Y452D01*
X1007Y452D02*
X1081Y452D01*
X607Y451D02*
X681Y451D01*
X809Y451D02*
X883Y451D01*
X1007Y451D02*
X1081Y451D01*
X607Y450D02*
X681Y450D01*
X809Y450D02*
X883Y450D01*
X1007Y450D02*
X1081Y450D01*
X607Y449D02*
X681Y449D01*
X809Y449D02*
X883Y449D01*
X1007Y449D02*
X1081Y449D01*
X607Y448D02*
X681Y448D01*
X809Y448D02*
X883Y448D01*
X1007Y448D02*
X1081Y448D01*
X607Y447D02*
X681Y447D01*
X809Y447D02*
X883Y447D01*
X1007Y447D02*
X1081Y447D01*
X607Y446D02*
X681Y446D01*
X809Y446D02*
X883Y446D01*
X1007Y446D02*
X1081Y446D01*
X607Y445D02*
X681Y445D01*
X809Y445D02*
X883Y445D01*
X1007Y445D02*
X1081Y445D01*
X607Y444D02*
X681Y444D01*
X809Y444D02*
X883Y444D01*
X1007Y444D02*
X1081Y444D01*
X607Y443D02*
X681Y443D01*
X809Y443D02*
X883Y443D01*
X1007Y443D02*
X1081Y443D01*
X607Y442D02*
X681Y442D01*
X809Y442D02*
X883Y442D01*
X1007Y442D02*
X1081Y442D01*
X607Y441D02*
X681Y441D01*
X809Y441D02*
X883Y441D01*
X1007Y441D02*
X1081Y441D01*
X607Y440D02*
X681Y440D01*
X809Y440D02*
X883Y440D01*
X1007Y440D02*
X1081Y440D01*
X607Y439D02*
X681Y439D01*
X809Y439D02*
X883Y439D01*
X1007Y439D02*
X1081Y439D01*
X607Y438D02*
X681Y438D01*
X809Y438D02*
X883Y438D01*
X1007Y438D02*
X1081Y438D01*
X607Y437D02*
X681Y437D01*
X809Y437D02*
X883Y437D01*
X1007Y437D02*
X1081Y437D01*
X607Y436D02*
X681Y436D01*
X809Y436D02*
X883Y436D01*
X1007Y436D02*
X1081Y436D01*
X607Y435D02*
X681Y435D01*
X809Y435D02*
X883Y435D01*
X1007Y435D02*
X1081Y435D01*
X607Y434D02*
X681Y434D01*
X809Y434D02*
X883Y434D01*
X1007Y434D02*
X1081Y434D01*
X607Y433D02*
X681Y433D01*
X809Y433D02*
X883Y433D01*
X1007Y433D02*
X1081Y433D01*
X607Y432D02*
X681Y432D01*
X809Y432D02*
X883Y432D01*
X1007Y432D02*
X1081Y432D01*
X607Y431D02*
X681Y431D01*
X809Y431D02*
X883Y431D01*
X1007Y431D02*
X1081Y431D01*
X607Y430D02*
X681Y430D01*
X809Y430D02*
X883Y430D01*
X1007Y430D02*
X1081Y430D01*
X607Y429D02*
X681Y429D01*
X809Y429D02*
X883Y429D01*
X1007Y429D02*
X1081Y429D01*
X607Y428D02*
X681Y428D01*
X809Y428D02*
X883Y428D01*
X1007Y428D02*
X1081Y428D01*
X607Y427D02*
X681Y427D01*
X809Y427D02*
X883Y427D01*
X1007Y427D02*
X1081Y427D01*
X607Y426D02*
X681Y426D01*
X809Y426D02*
X883Y426D01*
X1007Y426D02*
X1081Y426D01*
X607Y425D02*
X681Y425D01*
X809Y425D02*
X883Y425D01*
X1007Y425D02*
X1081Y425D01*
X607Y424D02*
X681Y424D01*
X809Y424D02*
X883Y424D01*
X1007Y424D02*
X1081Y424D01*
X607Y423D02*
X681Y423D01*
X809Y423D02*
X883Y423D01*
X1007Y423D02*
X1081Y423D01*
X607Y422D02*
X681Y422D01*
X809Y422D02*
X883Y422D01*
X1007Y422D02*
X1081Y422D01*
X607Y421D02*
X681Y421D01*
X809Y421D02*
X883Y421D01*
X1007Y421D02*
X1081Y421D01*
X607Y420D02*
X681Y420D01*
X809Y420D02*
X883Y420D01*
X1007Y420D02*
X1081Y420D01*
X607Y419D02*
X681Y419D01*
X809Y419D02*
X883Y419D01*
X1007Y419D02*
X1081Y419D01*
X607Y418D02*
X681Y418D01*
X809Y418D02*
X883Y418D01*
X1007Y418D02*
X1081Y418D01*
X607Y417D02*
X681Y417D01*
X809Y417D02*
X883Y417D01*
X1007Y417D02*
X1081Y417D01*
X607Y416D02*
X681Y416D01*
X809Y416D02*
X883Y416D01*
X1007Y416D02*
X1081Y416D01*
X607Y415D02*
X681Y415D01*
X809Y415D02*
X883Y415D01*
X1007Y415D02*
X1081Y415D01*
X607Y414D02*
X681Y414D01*
X809Y414D02*
X883Y414D01*
X1007Y414D02*
X1081Y414D01*
X607Y413D02*
X681Y413D01*
X809Y413D02*
X883Y413D01*
X1007Y413D02*
X1081Y413D01*
X607Y412D02*
X681Y412D01*
X809Y412D02*
X883Y412D01*
X1007Y412D02*
X1081Y412D01*
X607Y411D02*
X681Y411D01*
X809Y411D02*
X883Y411D01*
X1007Y411D02*
X1081Y411D01*
X607Y410D02*
X681Y410D01*
X809Y410D02*
X883Y410D01*
X1007Y410D02*
X1081Y410D01*
X607Y409D02*
X681Y409D01*
X809Y409D02*
X883Y409D01*
X1007Y409D02*
X1081Y409D01*
X607Y408D02*
X681Y408D01*
X809Y408D02*
X883Y408D01*
X1007Y408D02*
X1081Y408D01*
X607Y407D02*
X681Y407D01*
X809Y407D02*
X883Y407D01*
X1007Y407D02*
X1081Y407D01*
X607Y406D02*
X681Y406D01*
X809Y406D02*
X883Y406D01*
X1007Y406D02*
X1081Y406D01*
X607Y405D02*
X681Y405D01*
X809Y405D02*
X883Y405D01*
X1007Y405D02*
X1081Y405D01*
X607Y404D02*
X639Y404D01*
X648Y404D02*
X681Y404D01*
X809Y404D02*
X883Y404D01*
X1007Y404D02*
X1081Y404D01*
X607Y403D02*
X634Y403D01*
X654Y403D02*
X681Y403D01*
X809Y403D02*
X838Y403D01*
X854Y403D02*
X883Y403D01*
X1007Y403D02*
X1036Y403D01*
X1052Y403D02*
X1081Y403D01*
X607Y402D02*
X631Y402D01*
X657Y402D02*
X681Y402D01*
X809Y402D02*
X834Y402D01*
X858Y402D02*
X883Y402D01*
X1007Y402D02*
X1032Y402D01*
X1056Y402D02*
X1081Y402D01*
X607Y401D02*
X628Y401D01*
X660Y401D02*
X681Y401D01*
X809Y401D02*
X831Y401D01*
X861Y401D02*
X883Y401D01*
X1007Y401D02*
X1029Y401D01*
X1059Y401D02*
X1081Y401D01*
X607Y400D02*
X626Y400D01*
X662Y400D02*
X681Y400D01*
X809Y400D02*
X829Y400D01*
X863Y400D02*
X883Y400D01*
X1007Y400D02*
X1027Y400D01*
X1061Y400D02*
X1081Y400D01*
X607Y399D02*
X624Y399D01*
X663Y399D02*
X681Y399D01*
X809Y399D02*
X827Y399D01*
X865Y399D02*
X883Y399D01*
X1007Y399D02*
X1025Y399D01*
X1063Y399D02*
X1081Y399D01*
X607Y398D02*
X623Y398D01*
X665Y398D02*
X681Y398D01*
X809Y398D02*
X825Y398D01*
X866Y398D02*
X883Y398D01*
X1007Y398D02*
X1023Y398D01*
X1064Y398D02*
X1081Y398D01*
X607Y397D02*
X621Y397D01*
X667Y397D02*
X681Y397D01*
X809Y397D02*
X824Y397D01*
X868Y397D02*
X883Y397D01*
X1007Y397D02*
X1022Y397D01*
X1066Y397D02*
X1081Y397D01*
X607Y396D02*
X620Y396D01*
X668Y396D02*
X681Y396D01*
X809Y396D02*
X822Y396D01*
X869Y396D02*
X883Y396D01*
X1007Y396D02*
X1020Y396D01*
X1067Y396D02*
X1081Y396D01*
X607Y395D02*
X619Y395D01*
X669Y395D02*
X681Y395D01*
X809Y395D02*
X821Y395D01*
X870Y395D02*
X883Y395D01*
X1007Y395D02*
X1019Y395D01*
X1068Y395D02*
X1081Y395D01*
X607Y394D02*
X618Y394D01*
X670Y394D02*
X681Y394D01*
X809Y394D02*
X820Y394D01*
X872Y394D02*
X883Y394D01*
X1007Y394D02*
X1018Y394D01*
X1070Y394D02*
X1081Y394D01*
X607Y393D02*
X617Y393D01*
X671Y393D02*
X681Y393D01*
X809Y393D02*
X819Y393D01*
X873Y393D02*
X883Y393D01*
X1007Y393D02*
X1017Y393D01*
X1071Y393D02*
X1081Y393D01*
X607Y392D02*
X616Y392D01*
X672Y392D02*
X681Y392D01*
X809Y392D02*
X818Y392D01*
X874Y392D02*
X883Y392D01*
X1007Y392D02*
X1016Y392D01*
X1072Y392D02*
X1081Y392D01*
X607Y391D02*
X615Y391D01*
X673Y391D02*
X681Y391D01*
X809Y391D02*
X817Y391D01*
X875Y391D02*
X883Y391D01*
X1007Y391D02*
X1015Y391D01*
X1073Y391D02*
X1081Y391D01*
X607Y390D02*
X614Y390D01*
X674Y390D02*
X681Y390D01*
X809Y390D02*
X816Y390D01*
X875Y390D02*
X883Y390D01*
X1007Y390D02*
X1014Y390D01*
X1073Y390D02*
X1081Y390D01*
X607Y389D02*
X613Y389D01*
X675Y389D02*
X681Y389D01*
X809Y389D02*
X815Y389D01*
X876Y389D02*
X883Y389D01*
X1007Y389D02*
X1013Y389D01*
X1074Y389D02*
X1081Y389D01*
X607Y388D02*
X612Y388D01*
X675Y388D02*
X681Y388D01*
X809Y388D02*
X815Y388D01*
X877Y388D02*
X883Y388D01*
X1007Y388D02*
X1013Y388D01*
X1075Y388D02*
X1081Y388D01*
X607Y387D02*
X612Y387D01*
X676Y387D02*
X681Y387D01*
X809Y387D02*
X814Y387D01*
X878Y387D02*
X883Y387D01*
X1007Y387D02*
X1012Y387D01*
X1076Y387D02*
X1081Y387D01*
X607Y386D02*
X611Y386D01*
X677Y386D02*
X681Y386D01*
X809Y386D02*
X813Y386D01*
X878Y386D02*
X883Y386D01*
X1007Y386D02*
X1011Y386D01*
X1076Y386D02*
X1081Y386D01*
X607Y385D02*
X610Y385D01*
X677Y385D02*
X681Y385D01*
X809Y385D02*
X813Y385D01*
X879Y385D02*
X883Y385D01*
X1007Y385D02*
X1011Y385D01*
X1077Y385D02*
X1081Y385D01*
X607Y384D02*
X610Y384D01*
X678Y384D02*
X681Y384D01*
X809Y384D02*
X812Y384D01*
X879Y384D02*
X883Y384D01*
X1007Y384D02*
X1010Y384D01*
X1077Y384D02*
X1081Y384D01*
X607Y383D02*
X609Y383D01*
X678Y383D02*
X681Y383D01*
X809Y383D02*
X812Y383D01*
X880Y383D02*
X883Y383D01*
X1007Y383D02*
X1010Y383D01*
X1078Y383D02*
X1081Y383D01*
X607Y382D02*
X609Y382D01*
X679Y382D02*
X681Y382D01*
X809Y382D02*
X811Y382D01*
X880Y382D02*
X883Y382D01*
X1007Y382D02*
X1009Y382D01*
X1078Y382D02*
X1081Y382D01*
X607Y381D02*
X609Y381D01*
X679Y381D02*
X681Y381D01*
X809Y381D02*
X811Y381D01*
X881Y381D02*
X883Y381D01*
X1007Y381D02*
X1009Y381D01*
X1079Y381D02*
X1081Y381D01*
X607Y380D02*
X608Y380D01*
X680Y380D02*
X681Y380D01*
X809Y380D02*
X810Y380D01*
X881Y380D02*
X883Y380D01*
X1007Y380D02*
X1008Y380D01*
X1079Y380D02*
X1081Y380D01*
X607Y379D02*
X608Y379D01*
X680Y379D02*
X681Y379D01*
X809Y379D02*
X810Y379D01*
X882Y379D02*
X883Y379D01*
X1007Y379D02*
X1008Y379D01*
X1080Y379D02*
X1081Y379D01*
X607Y378D02*
X607Y378D01*
X680Y378D02*
X681Y378D01*
X809Y378D02*
X810Y378D01*
X882Y378D02*
X883Y378D01*
X1007Y378D02*
X1008Y378D01*
X1080Y378D02*
X1081Y378D01*
X607Y377D02*
X607Y377D01*
X681Y377D02*
X681Y377D01*
X809Y377D02*
X809Y377D01*
X882Y377D02*
X883Y377D01*
X1007Y377D02*
X1007Y377D01*
X1080Y377D02*
X1081Y377D01*
X607Y376D02*
X607Y376D01*
X681Y376D02*
X681Y376D01*
X809Y376D02*
X809Y376D01*
X883Y376D02*
X883Y376D01*
X1007Y376D02*
X1007Y376D01*
X1081Y376D02*
X1081Y376D01*
X607Y375D02*
X607Y375D01*
X681Y375D02*
X681Y375D01*
X809Y375D02*
X809Y375D01*
X883Y375D02*
X883Y375D01*
X1007Y375D02*
X1007Y375D01*
X1081Y375D02*
X1081Y375D01*
X681Y374D02*
X681Y374D01*
X809Y374D02*
X809Y374D01*
X883Y374D02*
X883Y374D01*
X1007Y374D02*
X1007Y374D01*
X1081Y374D02*
X1081Y374D01*
X883Y373D02*
X883Y373D01*
X1081Y373D02*
X1081Y373D01*
X883Y360D02*
X883Y360D01*
X1081Y360D02*
X1081Y360D01*
X681Y359D02*
X681Y359D01*
X809Y359D02*
X809Y359D01*
X883Y359D02*
X883Y359D01*
X1007Y359D02*
X1007Y359D01*
X1081Y359D02*
X1081Y359D01*
X607Y358D02*
X607Y358D01*
X681Y358D02*
X681Y358D01*
X809Y358D02*
X809Y358D01*
X883Y358D02*
X883Y358D01*
X1007Y358D02*
X1007Y358D01*
X1081Y358D02*
X1081Y358D01*
X607Y357D02*
X607Y357D01*
X681Y357D02*
X681Y357D01*
X809Y357D02*
X809Y357D01*
X883Y357D02*
X883Y357D01*
X1007Y357D02*
X1007Y357D01*
X1081Y357D02*
X1081Y357D01*
X607Y356D02*
X607Y356D01*
X681Y356D02*
X681Y356D01*
X809Y356D02*
X809Y356D01*
X882Y356D02*
X883Y356D01*
X1007Y356D02*
X1007Y356D01*
X1080Y356D02*
X1081Y356D01*
X607Y355D02*
X607Y355D01*
X680Y355D02*
X681Y355D01*
X809Y355D02*
X810Y355D01*
X882Y355D02*
X883Y355D01*
X1007Y355D02*
X1008Y355D01*
X1080Y355D02*
X1081Y355D01*
X607Y354D02*
X608Y354D01*
X680Y354D02*
X681Y354D01*
X809Y354D02*
X810Y354D01*
X882Y354D02*
X883Y354D01*
X1007Y354D02*
X1008Y354D01*
X1080Y354D02*
X1081Y354D01*
X607Y353D02*
X608Y353D01*
X680Y353D02*
X681Y353D01*
X809Y353D02*
X810Y353D01*
X881Y353D02*
X883Y353D01*
X1007Y353D02*
X1008Y353D01*
X1079Y353D02*
X1081Y353D01*
X607Y352D02*
X608Y352D01*
X679Y352D02*
X681Y352D01*
X809Y352D02*
X811Y352D01*
X881Y352D02*
X883Y352D01*
X1007Y352D02*
X1009Y352D01*
X1079Y352D02*
X1081Y352D01*
X607Y351D02*
X609Y351D01*
X679Y351D02*
X681Y351D01*
X809Y351D02*
X811Y351D01*
X880Y351D02*
X883Y351D01*
X1007Y351D02*
X1009Y351D01*
X1078Y351D02*
X1081Y351D01*
X607Y350D02*
X609Y350D01*
X678Y350D02*
X681Y350D01*
X809Y350D02*
X812Y350D01*
X880Y350D02*
X883Y350D01*
X1007Y350D02*
X1010Y350D01*
X1078Y350D02*
X1081Y350D01*
X607Y349D02*
X610Y349D01*
X678Y349D02*
X681Y349D01*
X809Y349D02*
X812Y349D01*
X879Y349D02*
X883Y349D01*
X1007Y349D02*
X1010Y349D01*
X1077Y349D02*
X1081Y349D01*
X607Y348D02*
X610Y348D01*
X677Y348D02*
X681Y348D01*
X809Y348D02*
X813Y348D01*
X879Y348D02*
X883Y348D01*
X1007Y348D02*
X1011Y348D01*
X1077Y348D02*
X1081Y348D01*
X607Y347D02*
X611Y347D01*
X677Y347D02*
X681Y347D01*
X809Y347D02*
X813Y347D01*
X878Y347D02*
X883Y347D01*
X1007Y347D02*
X1011Y347D01*
X1076Y347D02*
X1081Y347D01*
X607Y346D02*
X612Y346D01*
X676Y346D02*
X681Y346D01*
X809Y346D02*
X814Y346D01*
X878Y346D02*
X883Y346D01*
X1007Y346D02*
X1012Y346D01*
X1076Y346D02*
X1081Y346D01*
X607Y345D02*
X612Y345D01*
X675Y345D02*
X681Y345D01*
X809Y345D02*
X815Y345D01*
X877Y345D02*
X883Y345D01*
X1007Y345D02*
X1013Y345D01*
X1075Y345D02*
X1081Y345D01*
X607Y344D02*
X613Y344D01*
X675Y344D02*
X681Y344D01*
X809Y344D02*
X815Y344D01*
X876Y344D02*
X883Y344D01*
X1007Y344D02*
X1013Y344D01*
X1074Y344D02*
X1081Y344D01*
X607Y343D02*
X614Y343D01*
X674Y343D02*
X681Y343D01*
X809Y343D02*
X816Y343D01*
X876Y343D02*
X883Y343D01*
X1007Y343D02*
X1014Y343D01*
X1074Y343D02*
X1081Y343D01*
X607Y342D02*
X615Y342D01*
X673Y342D02*
X681Y342D01*
X809Y342D02*
X817Y342D01*
X875Y342D02*
X883Y342D01*
X1007Y342D02*
X1015Y342D01*
X1073Y342D02*
X1081Y342D01*
X607Y341D02*
X615Y341D01*
X672Y341D02*
X681Y341D01*
X809Y341D02*
X818Y341D01*
X874Y341D02*
X883Y341D01*
X1007Y341D02*
X1016Y341D01*
X1072Y341D02*
X1081Y341D01*
X607Y340D02*
X616Y340D01*
X671Y340D02*
X681Y340D01*
X809Y340D02*
X819Y340D01*
X873Y340D02*
X883Y340D01*
X1007Y340D02*
X1017Y340D01*
X1071Y340D02*
X1081Y340D01*
X607Y339D02*
X617Y339D01*
X670Y339D02*
X681Y339D01*
X809Y339D02*
X820Y339D01*
X872Y339D02*
X883Y339D01*
X1007Y339D02*
X1018Y339D01*
X1070Y339D02*
X1081Y339D01*
X607Y338D02*
X619Y338D01*
X669Y338D02*
X681Y338D01*
X809Y338D02*
X821Y338D01*
X871Y338D02*
X883Y338D01*
X1007Y338D02*
X1019Y338D01*
X1069Y338D02*
X1081Y338D01*
X607Y337D02*
X620Y337D01*
X668Y337D02*
X681Y337D01*
X809Y337D02*
X822Y337D01*
X869Y337D02*
X883Y337D01*
X1007Y337D02*
X1020Y337D01*
X1067Y337D02*
X1081Y337D01*
X607Y336D02*
X621Y336D01*
X667Y336D02*
X681Y336D01*
X809Y336D02*
X824Y336D01*
X868Y336D02*
X883Y336D01*
X1007Y336D02*
X1022Y336D01*
X1066Y336D02*
X1081Y336D01*
X607Y335D02*
X622Y335D01*
X665Y335D02*
X681Y335D01*
X809Y335D02*
X825Y335D01*
X867Y335D02*
X883Y335D01*
X1007Y335D02*
X1023Y335D01*
X1065Y335D02*
X1081Y335D01*
X607Y334D02*
X624Y334D01*
X664Y334D02*
X681Y334D01*
X809Y334D02*
X827Y334D01*
X865Y334D02*
X883Y334D01*
X1007Y334D02*
X1025Y334D01*
X1063Y334D02*
X1081Y334D01*
X607Y333D02*
X626Y333D01*
X662Y333D02*
X681Y333D01*
X809Y333D02*
X829Y333D01*
X863Y333D02*
X883Y333D01*
X1007Y333D02*
X1027Y333D01*
X1061Y333D02*
X1081Y333D01*
X607Y332D02*
X628Y332D01*
X660Y332D02*
X681Y332D01*
X809Y332D02*
X831Y332D01*
X861Y332D02*
X883Y332D01*
X1007Y332D02*
X1029Y332D01*
X1059Y332D02*
X1081Y332D01*
X607Y331D02*
X630Y331D01*
X657Y331D02*
X681Y331D01*
X809Y331D02*
X833Y331D01*
X858Y331D02*
X883Y331D01*
X1007Y331D02*
X1032Y331D01*
X1056Y331D02*
X1081Y331D01*
X607Y330D02*
X634Y330D01*
X654Y330D02*
X681Y330D01*
X809Y330D02*
X837Y330D01*
X855Y330D02*
X883Y330D01*
X1007Y330D02*
X1035Y330D01*
X1053Y330D02*
X1081Y330D01*
X607Y329D02*
X639Y329D01*
X649Y329D02*
X681Y329D01*
X809Y329D02*
X883Y329D01*
X1007Y329D02*
X1081Y329D01*
X607Y328D02*
X681Y328D01*
X809Y328D02*
X883Y328D01*
X1007Y328D02*
X1081Y328D01*
X607Y327D02*
X681Y327D01*
X809Y327D02*
X883Y327D01*
X1007Y327D02*
X1081Y327D01*
X607Y326D02*
X681Y326D01*
X809Y326D02*
X883Y326D01*
X1007Y326D02*
X1081Y326D01*
X607Y325D02*
X681Y325D01*
X809Y325D02*
X883Y325D01*
X1007Y325D02*
X1081Y325D01*
X607Y324D02*
X681Y324D01*
X809Y324D02*
X883Y324D01*
X1007Y324D02*
X1081Y324D01*
X607Y323D02*
X681Y323D01*
X809Y323D02*
X883Y323D01*
X1007Y323D02*
X1081Y323D01*
X607Y322D02*
X681Y322D01*
X809Y322D02*
X883Y322D01*
X1007Y322D02*
X1081Y322D01*
X607Y321D02*
X681Y321D01*
X809Y321D02*
X883Y321D01*
X1007Y321D02*
X1081Y321D01*
X607Y320D02*
X681Y320D01*
X809Y320D02*
X883Y320D01*
X1007Y320D02*
X1081Y320D01*
X607Y319D02*
X681Y319D01*
X809Y319D02*
X883Y319D01*
X1007Y319D02*
X1081Y319D01*
X607Y318D02*
X681Y318D01*
X809Y318D02*
X883Y318D01*
X1007Y318D02*
X1081Y318D01*
X607Y317D02*
X681Y317D01*
X809Y317D02*
X883Y317D01*
X1007Y317D02*
X1081Y317D01*
X607Y316D02*
X681Y316D01*
X809Y316D02*
X883Y316D01*
X1007Y316D02*
X1081Y316D01*
X607Y315D02*
X681Y315D01*
X809Y315D02*
X883Y315D01*
X1007Y315D02*
X1081Y315D01*
X607Y314D02*
X681Y314D01*
X809Y314D02*
X883Y314D01*
X1007Y314D02*
X1081Y314D01*
X607Y313D02*
X681Y313D01*
X809Y313D02*
X883Y313D01*
X1007Y313D02*
X1081Y313D01*
X607Y312D02*
X681Y312D01*
X809Y312D02*
X883Y312D01*
X1007Y312D02*
X1081Y312D01*
X607Y311D02*
X681Y311D01*
X809Y311D02*
X883Y311D01*
X1007Y311D02*
X1081Y311D01*
X607Y310D02*
X681Y310D01*
X809Y310D02*
X883Y310D01*
X1007Y310D02*
X1081Y310D01*
X607Y309D02*
X681Y309D01*
X809Y309D02*
X883Y309D01*
X1007Y309D02*
X1081Y309D01*
X607Y308D02*
X681Y308D01*
X809Y308D02*
X883Y308D01*
X1007Y308D02*
X1081Y308D01*
X607Y307D02*
X681Y307D01*
X809Y307D02*
X883Y307D01*
X1007Y307D02*
X1081Y307D01*
X607Y306D02*
X681Y306D01*
X809Y306D02*
X883Y306D01*
X1007Y306D02*
X1081Y306D01*
X607Y305D02*
X681Y305D01*
X809Y305D02*
X883Y305D01*
X1007Y305D02*
X1081Y305D01*
X607Y304D02*
X681Y304D01*
X809Y304D02*
X883Y304D01*
X1007Y304D02*
X1081Y304D01*
X607Y303D02*
X681Y303D01*
X809Y303D02*
X883Y303D01*
X1007Y303D02*
X1081Y303D01*
X607Y302D02*
X681Y302D01*
X809Y302D02*
X883Y302D01*
X1007Y302D02*
X1081Y302D01*
X607Y301D02*
X681Y301D01*
X809Y301D02*
X883Y301D01*
X1007Y301D02*
X1081Y301D01*
X607Y300D02*
X681Y300D01*
X809Y300D02*
X883Y300D01*
X1007Y300D02*
X1081Y300D01*
X607Y299D02*
X681Y299D01*
X809Y299D02*
X883Y299D01*
X1007Y299D02*
X1081Y299D01*
X607Y298D02*
X681Y298D01*
X809Y298D02*
X883Y298D01*
X1007Y298D02*
X1081Y298D01*
X607Y297D02*
X681Y297D01*
X809Y297D02*
X883Y297D01*
X1007Y297D02*
X1081Y297D01*
X607Y296D02*
X681Y296D01*
X809Y296D02*
X883Y296D01*
X1007Y296D02*
X1081Y296D01*
X607Y295D02*
X681Y295D01*
X809Y295D02*
X883Y295D01*
X1007Y295D02*
X1081Y295D01*
X607Y294D02*
X681Y294D01*
X809Y294D02*
X883Y294D01*
X1007Y294D02*
X1081Y294D01*
X607Y293D02*
X681Y293D01*
X809Y293D02*
X883Y293D01*
X1007Y293D02*
X1081Y293D01*
X607Y292D02*
X681Y292D01*
X809Y292D02*
X883Y292D01*
X1007Y292D02*
X1081Y292D01*
X607Y291D02*
X681Y291D01*
X809Y291D02*
X883Y291D01*
X1007Y291D02*
X1081Y291D01*
X607Y290D02*
X681Y290D01*
X809Y290D02*
X883Y290D01*
X1007Y290D02*
X1081Y290D01*
X607Y289D02*
X681Y289D01*
X809Y289D02*
X883Y289D01*
X1007Y289D02*
X1081Y289D01*
X607Y288D02*
X681Y288D01*
X809Y288D02*
X883Y288D01*
X1007Y288D02*
X1081Y288D01*
X607Y287D02*
X681Y287D01*
X809Y287D02*
X883Y287D01*
X1007Y287D02*
X1081Y287D01*
X607Y286D02*
X681Y286D01*
X809Y286D02*
X883Y286D01*
X1007Y286D02*
X1081Y286D01*
X607Y285D02*
X681Y285D01*
X809Y285D02*
X883Y285D01*
X1007Y285D02*
X1081Y285D01*
X607Y284D02*
X681Y284D01*
X809Y284D02*
X883Y284D01*
X1007Y284D02*
X1081Y284D01*
X607Y283D02*
X681Y283D01*
X809Y283D02*
X883Y283D01*
X1007Y283D02*
X1081Y283D01*
X607Y282D02*
X681Y282D01*
X809Y282D02*
X883Y282D01*
X1007Y282D02*
X1081Y282D01*
X607Y281D02*
X681Y281D01*
X809Y281D02*
X883Y281D01*
X1007Y281D02*
X1081Y281D01*
X607Y280D02*
X681Y280D01*
D02*
G04 End of Copper0*
M02*