G04 MADE WITH FRITZING*
G04 WWW.FRITZING.ORG*
G04 DOUBLE SIDED*
G04 HOLES PLATED*
G04 CONTOUR ON CENTER OF CONTOUR VECTOR*
%ASAXBY*%
%FSLAX23Y23*%
%MOIN*%
%OFA0B0*%
%SFA1.0B1.0*%
%ADD10C,0.049370*%
%ADD11C,0.148425*%
%ADD12C,0.080000*%
%ADD13C,0.108425*%
%ADD14C,0.160000*%
%ADD15C,0.110000*%
%ADD16C,0.076000*%
%ADD17C,0.072992*%
%ADD18C,0.088000*%
%ADD19C,0.090000*%
%ADD20C,0.135984*%
%ADD21R,0.072992X0.072992*%
%ADD22R,0.088000X0.088000*%
%ADD23R,0.090000X0.090000*%
%ADD24R,0.001000X0.001000*%
%LNMASK0*%
G90*
G70*
G54D10*
X1543Y79D03*
X1543Y681D03*
X2444Y881D03*
X2742Y2178D03*
X1744Y1782D03*
X2742Y1782D03*
X2145Y1478D03*
X3143Y2579D03*
X2639Y451D03*
X2879Y446D03*
G54D11*
X1944Y330D03*
X1944Y1630D03*
G54D12*
X2094Y310D03*
X2194Y310D03*
X2294Y310D03*
X2394Y310D03*
X2494Y310D03*
X2594Y310D03*
X1944Y1480D03*
X1944Y1380D03*
X1944Y1280D03*
X1944Y1180D03*
X1944Y1080D03*
X1944Y980D03*
X1944Y880D03*
X1944Y780D03*
X1944Y680D03*
G54D11*
X2744Y1630D03*
G54D12*
X1944Y580D03*
G54D11*
X2744Y330D03*
G54D12*
X2744Y580D03*
X2744Y680D03*
X2744Y780D03*
X2744Y880D03*
X2744Y980D03*
X2744Y1080D03*
X2744Y1180D03*
X2744Y1280D03*
X2744Y1380D03*
X2744Y1480D03*
X1244Y1380D03*
G54D13*
X1044Y365D03*
G54D14*
X494Y2130D03*
G54D13*
X846Y365D03*
G54D15*
X644Y365D03*
G54D16*
X584Y1820D03*
G54D12*
X1244Y1180D03*
X444Y1980D03*
X1244Y1580D03*
X444Y1880D03*
X444Y1780D03*
X444Y1680D03*
X444Y1580D03*
X444Y1480D03*
X444Y1380D03*
X1244Y1080D03*
X444Y1280D03*
X1244Y1280D03*
X444Y1180D03*
X1244Y1480D03*
X444Y1080D03*
G54D14*
X1194Y2130D03*
G54D12*
X444Y980D03*
X444Y880D03*
X444Y780D03*
X444Y680D03*
X444Y580D03*
X444Y480D03*
X1244Y480D03*
X1244Y580D03*
X1244Y680D03*
X1244Y780D03*
X1244Y880D03*
X1244Y980D03*
G54D17*
X1244Y3182D03*
X1244Y3280D03*
X644Y3182D03*
X644Y3280D03*
X1944Y3182D03*
X1944Y3280D03*
G54D18*
X2744Y2680D03*
X2744Y2580D03*
G54D19*
X2744Y3480D03*
X2844Y3480D03*
G54D18*
X4075Y978D03*
X4075Y1078D03*
X4075Y1178D03*
X4075Y1278D03*
G54D15*
X3376Y2442D03*
X3612Y2442D03*
X3376Y3033D03*
X3612Y3033D03*
G54D16*
X3444Y2580D03*
X3444Y2737D03*
X3444Y2895D03*
X3543Y2580D03*
X3543Y2737D03*
X3543Y2895D03*
G54D20*
X4644Y3480D03*
X4644Y180D03*
X144Y3480D03*
X144Y180D03*
G54D21*
X1244Y3182D03*
X644Y3182D03*
X1944Y3182D03*
G54D22*
X2744Y2680D03*
G54D23*
X2744Y3480D03*
G54D24*
X602Y458D02*
X686Y458D01*
X602Y457D02*
X686Y457D01*
X804Y457D02*
X888Y457D01*
X1002Y457D02*
X1086Y457D01*
X602Y456D02*
X686Y456D01*
X804Y456D02*
X888Y456D01*
X1002Y456D02*
X1086Y456D01*
X602Y455D02*
X686Y455D01*
X804Y455D02*
X888Y455D01*
X1002Y455D02*
X1086Y455D01*
X602Y454D02*
X686Y454D01*
X804Y454D02*
X888Y454D01*
X1002Y454D02*
X1086Y454D01*
X602Y453D02*
X686Y453D01*
X804Y453D02*
X888Y453D01*
X1002Y453D02*
X1086Y453D01*
X602Y452D02*
X686Y452D01*
X804Y452D02*
X888Y452D01*
X1002Y452D02*
X1086Y452D01*
X602Y451D02*
X686Y451D01*
X804Y451D02*
X888Y451D01*
X1002Y451D02*
X1086Y451D01*
X602Y450D02*
X686Y450D01*
X804Y450D02*
X888Y450D01*
X1002Y450D02*
X1086Y450D01*
X602Y449D02*
X686Y449D01*
X804Y449D02*
X888Y449D01*
X1002Y449D02*
X1086Y449D01*
X602Y448D02*
X686Y448D01*
X804Y448D02*
X888Y448D01*
X1002Y448D02*
X1086Y448D01*
X602Y447D02*
X686Y447D01*
X804Y447D02*
X888Y447D01*
X1002Y447D02*
X1086Y447D01*
X602Y446D02*
X686Y446D01*
X804Y446D02*
X888Y446D01*
X1002Y446D02*
X1086Y446D01*
X602Y445D02*
X686Y445D01*
X804Y445D02*
X888Y445D01*
X1002Y445D02*
X1086Y445D01*
X602Y444D02*
X686Y444D01*
X804Y444D02*
X888Y444D01*
X1002Y444D02*
X1086Y444D01*
X602Y443D02*
X686Y443D01*
X804Y443D02*
X888Y443D01*
X1002Y443D02*
X1086Y443D01*
X602Y442D02*
X686Y442D01*
X804Y442D02*
X888Y442D01*
X1002Y442D02*
X1086Y442D01*
X602Y441D02*
X686Y441D01*
X804Y441D02*
X888Y441D01*
X1002Y441D02*
X1086Y441D01*
X602Y440D02*
X686Y440D01*
X804Y440D02*
X888Y440D01*
X1002Y440D02*
X1086Y440D01*
X602Y439D02*
X686Y439D01*
X804Y439D02*
X888Y439D01*
X1002Y439D02*
X1086Y439D01*
X602Y438D02*
X686Y438D01*
X804Y438D02*
X888Y438D01*
X1002Y438D02*
X1086Y438D01*
X602Y437D02*
X686Y437D01*
X804Y437D02*
X888Y437D01*
X1002Y437D02*
X1086Y437D01*
X602Y436D02*
X686Y436D01*
X804Y436D02*
X888Y436D01*
X1002Y436D02*
X1086Y436D01*
X602Y435D02*
X686Y435D01*
X804Y435D02*
X888Y435D01*
X1002Y435D02*
X1086Y435D01*
X602Y434D02*
X686Y434D01*
X804Y434D02*
X888Y434D01*
X1002Y434D02*
X1086Y434D01*
X602Y433D02*
X686Y433D01*
X804Y433D02*
X888Y433D01*
X1002Y433D02*
X1086Y433D01*
X602Y432D02*
X686Y432D01*
X804Y432D02*
X888Y432D01*
X1002Y432D02*
X1086Y432D01*
X602Y431D02*
X686Y431D01*
X804Y431D02*
X888Y431D01*
X1002Y431D02*
X1086Y431D01*
X602Y430D02*
X686Y430D01*
X804Y430D02*
X888Y430D01*
X1002Y430D02*
X1086Y430D01*
X602Y429D02*
X686Y429D01*
X804Y429D02*
X888Y429D01*
X1002Y429D02*
X1086Y429D01*
X602Y428D02*
X686Y428D01*
X804Y428D02*
X888Y428D01*
X1002Y428D02*
X1086Y428D01*
X602Y427D02*
X686Y427D01*
X804Y427D02*
X888Y427D01*
X1002Y427D02*
X1086Y427D01*
X602Y426D02*
X686Y426D01*
X804Y426D02*
X888Y426D01*
X1002Y426D02*
X1086Y426D01*
X602Y425D02*
X686Y425D01*
X804Y425D02*
X888Y425D01*
X1002Y425D02*
X1086Y425D01*
X602Y424D02*
X686Y424D01*
X804Y424D02*
X888Y424D01*
X1002Y424D02*
X1086Y424D01*
X602Y423D02*
X686Y423D01*
X804Y423D02*
X888Y423D01*
X1002Y423D02*
X1086Y423D01*
X602Y422D02*
X686Y422D01*
X804Y422D02*
X888Y422D01*
X1002Y422D02*
X1086Y422D01*
X602Y421D02*
X686Y421D01*
X804Y421D02*
X888Y421D01*
X1002Y421D02*
X1086Y421D01*
X602Y420D02*
X686Y420D01*
X804Y420D02*
X888Y420D01*
X1002Y420D02*
X1086Y420D01*
X602Y419D02*
X686Y419D01*
X804Y419D02*
X888Y419D01*
X1002Y419D02*
X1086Y419D01*
X602Y418D02*
X686Y418D01*
X804Y418D02*
X888Y418D01*
X1002Y418D02*
X1086Y418D01*
X602Y417D02*
X686Y417D01*
X804Y417D02*
X888Y417D01*
X1002Y417D02*
X1086Y417D01*
X602Y416D02*
X686Y416D01*
X804Y416D02*
X888Y416D01*
X1002Y416D02*
X1086Y416D01*
X602Y415D02*
X686Y415D01*
X804Y415D02*
X888Y415D01*
X1002Y415D02*
X1086Y415D01*
X602Y414D02*
X686Y414D01*
X804Y414D02*
X888Y414D01*
X1002Y414D02*
X1086Y414D01*
X602Y413D02*
X686Y413D01*
X804Y413D02*
X888Y413D01*
X1002Y413D02*
X1086Y413D01*
X602Y412D02*
X686Y412D01*
X804Y412D02*
X888Y412D01*
X1002Y412D02*
X1086Y412D01*
X602Y411D02*
X686Y411D01*
X804Y411D02*
X888Y411D01*
X1002Y411D02*
X1086Y411D01*
X602Y410D02*
X686Y410D01*
X804Y410D02*
X888Y410D01*
X1002Y410D02*
X1086Y410D01*
X602Y409D02*
X686Y409D01*
X804Y409D02*
X888Y409D01*
X1002Y409D02*
X1086Y409D01*
X602Y408D02*
X686Y408D01*
X804Y408D02*
X888Y408D01*
X1002Y408D02*
X1086Y408D01*
X602Y407D02*
X686Y407D01*
X804Y407D02*
X888Y407D01*
X1002Y407D02*
X1086Y407D01*
X602Y406D02*
X686Y406D01*
X804Y406D02*
X888Y406D01*
X1002Y406D02*
X1086Y406D01*
X602Y405D02*
X686Y405D01*
X804Y405D02*
X888Y405D01*
X1002Y405D02*
X1086Y405D01*
X602Y404D02*
X686Y404D01*
X804Y404D02*
X888Y404D01*
X1002Y404D02*
X1086Y404D01*
X602Y403D02*
X686Y403D01*
X804Y403D02*
X888Y403D01*
X1002Y403D02*
X1086Y403D01*
X602Y402D02*
X686Y402D01*
X804Y402D02*
X888Y402D01*
X1002Y402D02*
X1086Y402D01*
X602Y401D02*
X686Y401D01*
X804Y401D02*
X888Y401D01*
X1002Y401D02*
X1086Y401D01*
X602Y400D02*
X686Y400D01*
X804Y400D02*
X888Y400D01*
X1002Y400D02*
X1086Y400D01*
X602Y399D02*
X639Y399D01*
X648Y399D02*
X686Y399D01*
X804Y399D02*
X888Y399D01*
X1002Y399D02*
X1086Y399D01*
X602Y398D02*
X634Y398D01*
X653Y398D02*
X686Y398D01*
X804Y398D02*
X838Y398D01*
X854Y398D02*
X888Y398D01*
X1002Y398D02*
X1036Y398D01*
X1052Y398D02*
X1086Y398D01*
X602Y397D02*
X631Y397D01*
X656Y397D02*
X686Y397D01*
X804Y397D02*
X834Y397D01*
X857Y397D02*
X888Y397D01*
X1002Y397D02*
X1032Y397D01*
X1055Y397D02*
X1086Y397D01*
X602Y396D02*
X629Y396D01*
X659Y396D02*
X686Y396D01*
X804Y396D02*
X832Y396D01*
X860Y396D02*
X888Y396D01*
X1002Y396D02*
X1030Y396D01*
X1058Y396D02*
X1086Y396D01*
X602Y395D02*
X627Y395D01*
X661Y395D02*
X686Y395D01*
X804Y395D02*
X830Y395D01*
X862Y395D02*
X888Y395D01*
X1002Y395D02*
X1028Y395D01*
X1060Y395D02*
X1086Y395D01*
X602Y394D02*
X626Y394D01*
X662Y394D02*
X686Y394D01*
X804Y394D02*
X828Y394D01*
X864Y394D02*
X888Y394D01*
X1002Y394D02*
X1026Y394D01*
X1062Y394D02*
X1086Y394D01*
X602Y393D02*
X624Y393D01*
X664Y393D02*
X686Y393D01*
X804Y393D02*
X827Y393D01*
X865Y393D02*
X888Y393D01*
X1002Y393D02*
X1025Y393D01*
X1063Y393D02*
X1086Y393D01*
X602Y392D02*
X623Y392D01*
X665Y392D02*
X686Y392D01*
X804Y392D02*
X825Y392D01*
X867Y392D02*
X888Y392D01*
X1002Y392D02*
X1023Y392D01*
X1065Y392D02*
X1086Y392D01*
X602Y391D02*
X622Y391D01*
X666Y391D02*
X686Y391D01*
X804Y391D02*
X824Y391D01*
X868Y391D02*
X888Y391D01*
X1002Y391D02*
X1022Y391D01*
X1066Y391D02*
X1086Y391D01*
X602Y390D02*
X621Y390D01*
X667Y390D02*
X686Y390D01*
X804Y390D02*
X823Y390D01*
X869Y390D02*
X888Y390D01*
X1002Y390D02*
X1021Y390D01*
X1067Y390D02*
X1086Y390D01*
X602Y389D02*
X620Y389D01*
X668Y389D02*
X686Y389D01*
X804Y389D02*
X822Y389D01*
X870Y389D02*
X888Y389D01*
X1002Y389D02*
X1020Y389D01*
X1068Y389D02*
X1086Y389D01*
X602Y388D02*
X619Y388D01*
X669Y388D02*
X686Y388D01*
X804Y388D02*
X821Y388D01*
X871Y388D02*
X888Y388D01*
X1002Y388D02*
X1019Y388D01*
X1069Y388D02*
X1086Y388D01*
X602Y387D02*
X618Y387D01*
X670Y387D02*
X686Y387D01*
X804Y387D02*
X820Y387D01*
X871Y387D02*
X888Y387D01*
X1002Y387D02*
X1018Y387D01*
X1069Y387D02*
X1086Y387D01*
X602Y386D02*
X617Y386D01*
X671Y386D02*
X686Y386D01*
X804Y386D02*
X819Y386D01*
X872Y386D02*
X888Y386D01*
X1002Y386D02*
X1017Y386D01*
X1070Y386D02*
X1086Y386D01*
X602Y385D02*
X616Y385D01*
X671Y385D02*
X686Y385D01*
X804Y385D02*
X819Y385D01*
X873Y385D02*
X888Y385D01*
X1002Y385D02*
X1017Y385D01*
X1071Y385D02*
X1086Y385D01*
X602Y384D02*
X616Y384D01*
X672Y384D02*
X686Y384D01*
X804Y384D02*
X818Y384D01*
X874Y384D02*
X888Y384D01*
X1002Y384D02*
X1016Y384D01*
X1072Y384D02*
X1086Y384D01*
X602Y383D02*
X615Y383D01*
X673Y383D02*
X686Y383D01*
X804Y383D02*
X817Y383D01*
X874Y383D02*
X888Y383D01*
X1002Y383D02*
X1015Y383D01*
X1072Y383D02*
X1086Y383D01*
X602Y382D02*
X614Y382D01*
X673Y382D02*
X686Y382D01*
X804Y382D02*
X817Y382D01*
X875Y382D02*
X888Y382D01*
X1002Y382D02*
X1015Y382D01*
X1073Y382D02*
X1086Y382D01*
X602Y381D02*
X614Y381D01*
X674Y381D02*
X686Y381D01*
X804Y381D02*
X816Y381D01*
X875Y381D02*
X888Y381D01*
X1002Y381D02*
X1014Y381D01*
X1073Y381D02*
X1086Y381D01*
X602Y380D02*
X613Y380D01*
X674Y380D02*
X686Y380D01*
X804Y380D02*
X816Y380D01*
X876Y380D02*
X888Y380D01*
X1002Y380D02*
X1014Y380D01*
X1074Y380D02*
X1086Y380D01*
X602Y379D02*
X613Y379D01*
X675Y379D02*
X686Y379D01*
X804Y379D02*
X815Y379D01*
X876Y379D02*
X888Y379D01*
X1002Y379D02*
X1013Y379D01*
X1074Y379D02*
X1086Y379D01*
X602Y378D02*
X613Y378D01*
X675Y378D02*
X686Y378D01*
X804Y378D02*
X815Y378D01*
X877Y378D02*
X888Y378D01*
X1002Y378D02*
X1013Y378D01*
X1075Y378D02*
X1086Y378D01*
X602Y377D02*
X612Y377D01*
X675Y377D02*
X686Y377D01*
X804Y377D02*
X815Y377D01*
X877Y377D02*
X888Y377D01*
X1002Y377D02*
X1013Y377D01*
X1075Y377D02*
X1086Y377D01*
X602Y376D02*
X612Y376D01*
X676Y376D02*
X686Y376D01*
X804Y376D02*
X814Y376D01*
X877Y376D02*
X888Y376D01*
X1002Y376D02*
X1012Y376D01*
X1075Y376D02*
X1086Y376D01*
X602Y375D02*
X612Y375D01*
X676Y375D02*
X686Y375D01*
X804Y375D02*
X814Y375D01*
X878Y375D02*
X888Y375D01*
X1002Y375D02*
X1012Y375D01*
X1076Y375D02*
X1086Y375D01*
X602Y374D02*
X611Y374D01*
X676Y374D02*
X686Y374D01*
X804Y374D02*
X814Y374D01*
X878Y374D02*
X888Y374D01*
X1002Y374D02*
X1012Y374D01*
X1076Y374D02*
X1086Y374D01*
X602Y373D02*
X611Y373D01*
X677Y373D02*
X686Y373D01*
X804Y373D02*
X813Y373D01*
X878Y373D02*
X888Y373D01*
X1002Y373D02*
X1011Y373D01*
X1076Y373D02*
X1086Y373D01*
X602Y372D02*
X611Y372D01*
X677Y372D02*
X686Y372D01*
X804Y372D02*
X813Y372D01*
X878Y372D02*
X888Y372D01*
X1002Y372D02*
X1011Y372D01*
X1076Y372D02*
X1086Y372D01*
X601Y371D02*
X611Y371D01*
X677Y371D02*
X686Y371D01*
X804Y371D02*
X813Y371D01*
X878Y371D02*
X888Y371D01*
X1002Y371D02*
X1011Y371D01*
X1076Y371D02*
X1086Y371D01*
X601Y370D02*
X611Y370D01*
X677Y370D02*
X686Y370D01*
X804Y370D02*
X813Y370D01*
X878Y370D02*
X888Y370D01*
X1002Y370D02*
X1011Y370D01*
X1077Y370D02*
X1086Y370D01*
X601Y369D02*
X611Y369D01*
X677Y369D02*
X686Y369D01*
X804Y369D02*
X813Y369D01*
X879Y369D02*
X888Y369D01*
X1002Y369D02*
X1011Y369D01*
X1077Y369D02*
X1086Y369D01*
X601Y368D02*
X611Y368D01*
X677Y368D02*
X686Y368D01*
X804Y368D02*
X813Y368D01*
X879Y368D02*
X888Y368D01*
X1002Y368D02*
X1011Y368D01*
X1077Y368D02*
X1086Y368D01*
X601Y367D02*
X611Y367D01*
X677Y367D02*
X686Y367D01*
X804Y367D02*
X813Y367D01*
X879Y367D02*
X888Y367D01*
X1002Y367D02*
X1011Y367D01*
X1077Y367D02*
X1086Y367D01*
X601Y366D02*
X611Y366D01*
X677Y366D02*
X686Y366D01*
X804Y366D02*
X813Y366D01*
X879Y366D02*
X888Y366D01*
X1002Y366D02*
X1011Y366D01*
X1077Y366D02*
X1086Y366D01*
X601Y365D02*
X611Y365D01*
X677Y365D02*
X686Y365D01*
X804Y365D02*
X813Y365D01*
X879Y365D02*
X888Y365D01*
X1002Y365D02*
X1011Y365D01*
X1077Y365D02*
X1086Y365D01*
X601Y364D02*
X611Y364D01*
X677Y364D02*
X686Y364D01*
X804Y364D02*
X813Y364D01*
X879Y364D02*
X888Y364D01*
X1002Y364D02*
X1011Y364D01*
X1077Y364D02*
X1086Y364D01*
X601Y363D02*
X611Y363D01*
X677Y363D02*
X686Y363D01*
X804Y363D02*
X813Y363D01*
X878Y363D02*
X888Y363D01*
X1002Y363D02*
X1011Y363D01*
X1077Y363D02*
X1086Y363D01*
X601Y362D02*
X611Y362D01*
X677Y362D02*
X686Y362D01*
X804Y362D02*
X813Y362D01*
X878Y362D02*
X888Y362D01*
X1002Y362D02*
X1011Y362D01*
X1076Y362D02*
X1086Y362D01*
X602Y361D02*
X611Y361D01*
X677Y361D02*
X686Y361D01*
X804Y361D02*
X813Y361D01*
X878Y361D02*
X888Y361D01*
X1002Y361D02*
X1011Y361D01*
X1076Y361D02*
X1086Y361D01*
X602Y360D02*
X611Y360D01*
X677Y360D02*
X686Y360D01*
X804Y360D02*
X813Y360D01*
X878Y360D02*
X888Y360D01*
X1002Y360D02*
X1011Y360D01*
X1076Y360D02*
X1086Y360D01*
X602Y359D02*
X611Y359D01*
X676Y359D02*
X686Y359D01*
X804Y359D02*
X814Y359D01*
X878Y359D02*
X888Y359D01*
X1002Y359D02*
X1012Y359D01*
X1076Y359D02*
X1086Y359D01*
X602Y358D02*
X612Y358D01*
X676Y358D02*
X686Y358D01*
X804Y358D02*
X814Y358D01*
X878Y358D02*
X888Y358D01*
X1002Y358D02*
X1012Y358D01*
X1076Y358D02*
X1086Y358D01*
X602Y357D02*
X612Y357D01*
X676Y357D02*
X686Y357D01*
X804Y357D02*
X814Y357D01*
X877Y357D02*
X888Y357D01*
X1002Y357D02*
X1012Y357D01*
X1075Y357D02*
X1086Y357D01*
X602Y356D02*
X612Y356D01*
X676Y356D02*
X686Y356D01*
X804Y356D02*
X815Y356D01*
X877Y356D02*
X888Y356D01*
X1002Y356D02*
X1013Y356D01*
X1075Y356D02*
X1086Y356D01*
X602Y355D02*
X613Y355D01*
X675Y355D02*
X686Y355D01*
X804Y355D02*
X815Y355D01*
X877Y355D02*
X888Y355D01*
X1002Y355D02*
X1013Y355D01*
X1075Y355D02*
X1086Y355D01*
X602Y354D02*
X613Y354D01*
X675Y354D02*
X686Y354D01*
X804Y354D02*
X815Y354D01*
X876Y354D02*
X888Y354D01*
X1002Y354D02*
X1013Y354D01*
X1074Y354D02*
X1086Y354D01*
X602Y353D02*
X613Y353D01*
X674Y353D02*
X686Y353D01*
X804Y353D02*
X816Y353D01*
X876Y353D02*
X888Y353D01*
X1002Y353D02*
X1014Y353D01*
X1074Y353D02*
X1086Y353D01*
X602Y352D02*
X614Y352D01*
X674Y352D02*
X686Y352D01*
X804Y352D02*
X816Y352D01*
X875Y352D02*
X888Y352D01*
X1002Y352D02*
X1014Y352D01*
X1073Y352D02*
X1086Y352D01*
X602Y351D02*
X614Y351D01*
X673Y351D02*
X686Y351D01*
X804Y351D02*
X817Y351D01*
X875Y351D02*
X888Y351D01*
X1002Y351D02*
X1015Y351D01*
X1073Y351D02*
X1086Y351D01*
X602Y350D02*
X615Y350D01*
X673Y350D02*
X686Y350D01*
X804Y350D02*
X817Y350D01*
X874Y350D02*
X888Y350D01*
X1002Y350D02*
X1015Y350D01*
X1072Y350D02*
X1086Y350D01*
X602Y349D02*
X616Y349D01*
X672Y349D02*
X686Y349D01*
X804Y349D02*
X818Y349D01*
X874Y349D02*
X888Y349D01*
X1002Y349D02*
X1016Y349D01*
X1072Y349D02*
X1086Y349D01*
X602Y348D02*
X616Y348D01*
X672Y348D02*
X686Y348D01*
X804Y348D02*
X819Y348D01*
X873Y348D02*
X888Y348D01*
X1002Y348D02*
X1017Y348D01*
X1071Y348D02*
X1086Y348D01*
X602Y347D02*
X617Y347D01*
X671Y347D02*
X686Y347D01*
X804Y347D02*
X819Y347D01*
X872Y347D02*
X888Y347D01*
X1002Y347D02*
X1017Y347D01*
X1070Y347D02*
X1086Y347D01*
X602Y346D02*
X618Y346D01*
X670Y346D02*
X686Y346D01*
X804Y346D02*
X820Y346D01*
X872Y346D02*
X888Y346D01*
X1002Y346D02*
X1018Y346D01*
X1070Y346D02*
X1086Y346D01*
X602Y345D02*
X619Y345D01*
X669Y345D02*
X686Y345D01*
X804Y345D02*
X821Y345D01*
X871Y345D02*
X888Y345D01*
X1002Y345D02*
X1019Y345D01*
X1069Y345D02*
X1086Y345D01*
X602Y344D02*
X620Y344D01*
X668Y344D02*
X686Y344D01*
X804Y344D02*
X822Y344D01*
X870Y344D02*
X888Y344D01*
X1002Y344D02*
X1020Y344D01*
X1068Y344D02*
X1086Y344D01*
X602Y343D02*
X620Y343D01*
X667Y343D02*
X686Y343D01*
X804Y343D02*
X823Y343D01*
X869Y343D02*
X888Y343D01*
X1002Y343D02*
X1021Y343D01*
X1067Y343D02*
X1086Y343D01*
X602Y342D02*
X622Y342D01*
X666Y342D02*
X686Y342D01*
X804Y342D02*
X824Y342D01*
X868Y342D02*
X888Y342D01*
X1002Y342D02*
X1022Y342D01*
X1066Y342D02*
X1086Y342D01*
X602Y341D02*
X623Y341D01*
X665Y341D02*
X686Y341D01*
X804Y341D02*
X825Y341D01*
X867Y341D02*
X888Y341D01*
X1002Y341D02*
X1023Y341D01*
X1065Y341D02*
X1086Y341D01*
X602Y340D02*
X624Y340D01*
X664Y340D02*
X686Y340D01*
X804Y340D02*
X826Y340D01*
X865Y340D02*
X888Y340D01*
X1002Y340D02*
X1024Y340D01*
X1063Y340D02*
X1086Y340D01*
X602Y339D02*
X625Y339D01*
X662Y339D02*
X686Y339D01*
X804Y339D02*
X828Y339D01*
X864Y339D02*
X888Y339D01*
X1002Y339D02*
X1026Y339D01*
X1062Y339D02*
X1086Y339D01*
X602Y338D02*
X627Y338D01*
X661Y338D02*
X686Y338D01*
X804Y338D02*
X829Y338D01*
X862Y338D02*
X888Y338D01*
X1002Y338D02*
X1027Y338D01*
X1060Y338D02*
X1086Y338D01*
X602Y337D02*
X629Y337D01*
X659Y337D02*
X686Y337D01*
X804Y337D02*
X831Y337D01*
X860Y337D02*
X888Y337D01*
X1002Y337D02*
X1029Y337D01*
X1058Y337D02*
X1086Y337D01*
X602Y336D02*
X631Y336D01*
X657Y336D02*
X686Y336D01*
X804Y336D02*
X834Y336D01*
X858Y336D02*
X888Y336D01*
X1002Y336D02*
X1032Y336D01*
X1056Y336D02*
X1086Y336D01*
X602Y335D02*
X634Y335D01*
X654Y335D02*
X686Y335D01*
X804Y335D02*
X837Y335D01*
X855Y335D02*
X888Y335D01*
X1002Y335D02*
X1035Y335D01*
X1053Y335D02*
X1086Y335D01*
X602Y334D02*
X639Y334D01*
X649Y334D02*
X686Y334D01*
X804Y334D02*
X888Y334D01*
X1002Y334D02*
X1086Y334D01*
X602Y333D02*
X686Y333D01*
X804Y333D02*
X888Y333D01*
X1002Y333D02*
X1086Y333D01*
X602Y332D02*
X686Y332D01*
X804Y332D02*
X888Y332D01*
X1002Y332D02*
X1086Y332D01*
X602Y331D02*
X686Y331D01*
X804Y331D02*
X888Y331D01*
X1002Y331D02*
X1086Y331D01*
X602Y330D02*
X686Y330D01*
X804Y330D02*
X888Y330D01*
X1002Y330D02*
X1086Y330D01*
X602Y329D02*
X686Y329D01*
X804Y329D02*
X888Y329D01*
X1002Y329D02*
X1086Y329D01*
X602Y328D02*
X686Y328D01*
X804Y328D02*
X888Y328D01*
X1002Y328D02*
X1086Y328D01*
X602Y327D02*
X686Y327D01*
X804Y327D02*
X888Y327D01*
X1002Y327D02*
X1086Y327D01*
X602Y326D02*
X686Y326D01*
X804Y326D02*
X888Y326D01*
X1002Y326D02*
X1086Y326D01*
X602Y325D02*
X686Y325D01*
X804Y325D02*
X888Y325D01*
X1002Y325D02*
X1086Y325D01*
X602Y324D02*
X686Y324D01*
X804Y324D02*
X888Y324D01*
X1002Y324D02*
X1086Y324D01*
X602Y323D02*
X686Y323D01*
X804Y323D02*
X888Y323D01*
X1002Y323D02*
X1086Y323D01*
X602Y322D02*
X686Y322D01*
X804Y322D02*
X888Y322D01*
X1002Y322D02*
X1086Y322D01*
X602Y321D02*
X686Y321D01*
X804Y321D02*
X888Y321D01*
X1002Y321D02*
X1086Y321D01*
X602Y320D02*
X686Y320D01*
X804Y320D02*
X888Y320D01*
X1002Y320D02*
X1086Y320D01*
X602Y319D02*
X686Y319D01*
X804Y319D02*
X888Y319D01*
X1002Y319D02*
X1086Y319D01*
X602Y318D02*
X686Y318D01*
X804Y318D02*
X888Y318D01*
X1002Y318D02*
X1086Y318D01*
X602Y317D02*
X686Y317D01*
X804Y317D02*
X888Y317D01*
X1002Y317D02*
X1086Y317D01*
X602Y316D02*
X686Y316D01*
X804Y316D02*
X888Y316D01*
X1002Y316D02*
X1086Y316D01*
X602Y315D02*
X686Y315D01*
X804Y315D02*
X888Y315D01*
X1002Y315D02*
X1086Y315D01*
X602Y314D02*
X686Y314D01*
X804Y314D02*
X888Y314D01*
X1002Y314D02*
X1086Y314D01*
X602Y313D02*
X686Y313D01*
X804Y313D02*
X888Y313D01*
X1002Y313D02*
X1086Y313D01*
X602Y312D02*
X686Y312D01*
X804Y312D02*
X888Y312D01*
X1002Y312D02*
X1086Y312D01*
X602Y311D02*
X686Y311D01*
X804Y311D02*
X888Y311D01*
X1002Y311D02*
X1086Y311D01*
X602Y310D02*
X686Y310D01*
X804Y310D02*
X888Y310D01*
X1002Y310D02*
X1086Y310D01*
X602Y309D02*
X686Y309D01*
X804Y309D02*
X888Y309D01*
X1002Y309D02*
X1086Y309D01*
X602Y308D02*
X686Y308D01*
X804Y308D02*
X888Y308D01*
X1002Y308D02*
X1086Y308D01*
X602Y307D02*
X686Y307D01*
X804Y307D02*
X888Y307D01*
X1002Y307D02*
X1086Y307D01*
X602Y306D02*
X686Y306D01*
X804Y306D02*
X888Y306D01*
X1002Y306D02*
X1086Y306D01*
X602Y305D02*
X686Y305D01*
X804Y305D02*
X888Y305D01*
X1002Y305D02*
X1086Y305D01*
X602Y304D02*
X686Y304D01*
X804Y304D02*
X888Y304D01*
X1002Y304D02*
X1086Y304D01*
X602Y303D02*
X686Y303D01*
X804Y303D02*
X888Y303D01*
X1002Y303D02*
X1086Y303D01*
X602Y302D02*
X686Y302D01*
X804Y302D02*
X888Y302D01*
X1002Y302D02*
X1086Y302D01*
X602Y301D02*
X686Y301D01*
X804Y301D02*
X888Y301D01*
X1002Y301D02*
X1086Y301D01*
X602Y300D02*
X686Y300D01*
X804Y300D02*
X888Y300D01*
X1002Y300D02*
X1086Y300D01*
X602Y299D02*
X686Y299D01*
X804Y299D02*
X888Y299D01*
X1002Y299D02*
X1086Y299D01*
X602Y298D02*
X686Y298D01*
X804Y298D02*
X888Y298D01*
X1002Y298D02*
X1086Y298D01*
X602Y297D02*
X686Y297D01*
X804Y297D02*
X888Y297D01*
X1002Y297D02*
X1086Y297D01*
X602Y296D02*
X686Y296D01*
X804Y296D02*
X888Y296D01*
X1002Y296D02*
X1086Y296D01*
X602Y295D02*
X686Y295D01*
X804Y295D02*
X888Y295D01*
X1002Y295D02*
X1086Y295D01*
X602Y294D02*
X686Y294D01*
X804Y294D02*
X888Y294D01*
X1002Y294D02*
X1086Y294D01*
X602Y293D02*
X686Y293D01*
X804Y293D02*
X888Y293D01*
X1002Y293D02*
X1086Y293D01*
X602Y292D02*
X686Y292D01*
X804Y292D02*
X888Y292D01*
X1002Y292D02*
X1086Y292D01*
X602Y291D02*
X686Y291D01*
X804Y291D02*
X888Y291D01*
X1002Y291D02*
X1086Y291D01*
X602Y290D02*
X686Y290D01*
X804Y290D02*
X888Y290D01*
X1002Y290D02*
X1086Y290D01*
X602Y289D02*
X686Y289D01*
X804Y289D02*
X888Y289D01*
X1002Y289D02*
X1086Y289D01*
X602Y288D02*
X686Y288D01*
X804Y288D02*
X888Y288D01*
X1002Y288D02*
X1086Y288D01*
X602Y287D02*
X686Y287D01*
X804Y287D02*
X888Y287D01*
X1002Y287D02*
X1086Y287D01*
X602Y286D02*
X686Y286D01*
X804Y286D02*
X888Y286D01*
X1002Y286D02*
X1086Y286D01*
X602Y285D02*
X686Y285D01*
X804Y285D02*
X888Y285D01*
X1002Y285D02*
X1086Y285D01*
X602Y284D02*
X686Y284D01*
X804Y284D02*
X888Y284D01*
X1002Y284D02*
X1086Y284D01*
X602Y283D02*
X686Y283D01*
X804Y283D02*
X888Y283D01*
X1002Y283D02*
X1086Y283D01*
X602Y282D02*
X686Y282D01*
X804Y282D02*
X888Y282D01*
X1002Y282D02*
X1086Y282D01*
X602Y281D02*
X686Y281D01*
X804Y281D02*
X888Y281D01*
X1002Y281D02*
X1086Y281D01*
X602Y280D02*
X686Y280D01*
X804Y280D02*
X888Y280D01*
X1002Y280D02*
X1086Y280D01*
X602Y279D02*
X686Y279D01*
X804Y279D02*
X888Y279D01*
X1002Y279D02*
X1086Y279D01*
X602Y278D02*
X686Y278D01*
X804Y278D02*
X888Y278D01*
X1002Y278D02*
X1086Y278D01*
X602Y277D02*
X686Y277D01*
X804Y277D02*
X888Y277D01*
X1002Y277D02*
X1086Y277D01*
X602Y276D02*
X686Y276D01*
X804Y276D02*
X888Y276D01*
X1002Y276D02*
X1086Y276D01*
X602Y275D02*
X686Y275D01*
D02*
G04 End of Mask0*
M02*